<svg xmlns="http://www.w3.org/2000/svg" xmlns:xlink="http://www.w3.org/1999/xlink" version="1.1" viewBox="0 0 96 120" x="0px" y="0px"><path d="M48.336 82.668c-18.932 0-34.336-15.404-34.336-34.332 0-18.932 15.404-34.336 34.336-34.336 18.928 0 34.332 15.404 34.332 34.336 0 18.928-15.404 34.332-34.332 34.332zM48.336 18c-16.728 0-30.336 13.608-30.336 30.336s13.608 30.332 30.336 30.332c16.728 0 30.332-13.604 30.332-30.332s-13.604-30.336-30.332-30.336z" fill="#000000"/><path d="M48 92c-1.104 0-2-0.9-2-2v-84c0-1.104 0.896-2 2-2s2 0.896 2 2v84c0 1.1-0.896 2-2 2z" fill="#000000"/><path d="M90 50h-84c-1.104 0-2-0.896-2-2s0.896-2 2-2h84c1.1 0 2 0.896 2 2s-0.9 2-2 2z" fill="#000000"/><text x="0" y="111" fill="#000000" font-size="5px" font-weight="bold" font-family="'Helvetica Neue', Helvetica, Arial-Unicode, Arial, Sans-serif">Created by iconsmind.com</text><text x="0" y="116" fill="#000000" font-size="5px" font-weight="bold" font-family="'Helvetica Neue', Helvetica, Arial-Unicode, Arial, Sans-serif">from the Noun Project</text></svg>