<?xml version="1.0" encoding="utf-8"?>
<!-- Generator: Adobe Illustrator 19.1.0, SVG Export Plug-In . SVG Version: 6.00 Build 0)  -->
<svg version="1.1" id="Layer_1" xmlns="http://www.w3.org/2000/svg" xmlns:xlink="http://www.w3.org/1999/xlink" x="0px" y="0px"
	 viewBox="0 0 437.9 119.6" style="enable-background:new 0 0 437.9 119.6;" xml:space="preserve">
<style type="text/css">
	.st0{fill:url(#XMLID_2_);}
	.st1{fill:#F1F2F2;}
</style>
<linearGradient id="XMLID_2_" gradientUnits="userSpaceOnUse" x1="38.8421" y1="272.9467" x2="412.1421" y2="272.9467" gradientTransform="matrix(1 0 0 1 0 -190)">
	<stop  offset="0" style="stop-color:#70CDDD"/>
	<stop  offset="0.1702" style="stop-color:#62C9DA"/>
	<stop  offset="0.3969" style="stop-color:#81BDD6"/>
	<stop  offset="0.6015" style="stop-color:#B7A1C4"/>
	<stop  offset="0.7765" style="stop-color:#DE8BB6"/>
	<stop  offset="0.9151" style="stop-color:#F280AE"/>
	<stop  offset="1" style="stop-color:#F27BAA"/>
</linearGradient>
<polygon id="XMLID_681_" class="st0" points="412.1,87.9 408.5,77.9 38.8,77.9 38.8,87.9 "/>
<g>
	<path class="st1" d="M62.9,47l-0.7,4.8h3v5.4h-3.9L60,65.5h-6l1.4-8.4h-5.1l-1.3,8.4h-6l1.3-8.4h-3v-5.4h3.9l0.7-4.8h-3.1v-5.3h3.9
		l1.2-7.8h6l-1.2,7.8h5.1l1.2-7.8h6l-1.2,7.8h3V47H62.9z M51.8,47l-0.7,4.8h5.1l0.7-4.8H51.8z"/>
	<path class="st1" d="M92.2,62.5c-2.1,2.1-5,3-8.3,3H72.6V34.2h11.3c3.3,0,6.2,0.9,8.3,3c3.5,3.5,3.2,7.8,3.2,12.5
		C95.3,54.4,95.7,59,92.2,62.5z M87.9,41.6c-1.1-1.3-2.5-1.9-4.6-1.9h-4.6v20.4h4.6c2.1,0,3.5-0.7,4.6-1.9c1.1-1.4,1.3-3.7,1.3-8.4
		C89.2,45,89,43,87.9,41.6z"/>
	<path class="st1" d="M118.2,65.5L112.1,53h-4.4v12.5h-6.1V34.2h12.3c6.4,0,10.2,4.4,10.2,9.6c0,4.4-2.7,7.1-5.7,8.2l7,13.5H118.2z
		 M113.5,39.6h-5.8v8.3h5.8c2.7,0,4.4-1.7,4.4-4.1C117.9,41.4,116.1,39.6,113.5,39.6z"/>
	<path class="st1" d="M149.3,62.3c-2.2,2.2-4.9,3.4-8.4,3.4s-6.3-1.2-8.5-3.4c-3.2-3.2-3.1-7.1-3.1-12.5c0-5.4-0.1-9.3,3.1-12.5
		c2.2-2.2,4.9-3.4,8.5-3.4s6.2,1.2,8.4,3.4c3.2,3.2,3.1,7.1,3.1,12.5C152.4,55.3,152.5,59.2,149.3,62.3z M144.8,41
		c-0.9-1-2.2-1.7-3.9-1.7s-3.1,0.7-4,1.7c-1.2,1.3-1.5,2.8-1.5,8.8c0,6,0.3,7.5,1.5,8.8c0.9,1,2.3,1.7,4,1.7s3-0.7,3.9-1.7
		c1.2-1.3,1.5-2.8,1.5-8.8C146.3,43.8,146,42.4,144.8,41z"/>
	<path class="st1" d="M177.2,65.5l-12.4-19.2v19.2h-6.1V34.2h5.5l12.4,19.2V34.2h6.1v31.3H177.2z"/>
	<path class="st1" d="M190,65.5V34.2h20.6v5.5h-14.5V47h12.4v5.5h-12.4v7.6h14.5v5.5H190z"/>
	<path class="st1" d="M228.7,53.7h-6v11.8h-6.1V34.2h12.1c6.5,0,10.3,4.4,10.3,9.8C239.1,49.3,235.2,53.7,228.7,53.7z M228.4,39.6
		h-5.7v8.6h5.7c2.8,0,4.5-1.7,4.5-4.3C233,41.4,231.2,39.6,228.4,39.6z"/>
	<path class="st1" d="M263.2,62.3c-2.2,2.2-4.9,3.4-8.4,3.4s-6.3-1.2-8.5-3.4c-3.2-3.2-3.1-7.1-3.1-12.5c0-5.4-0.1-9.3,3.1-12.5
		c2.2-2.2,4.9-3.4,8.5-3.4s6.2,1.2,8.4,3.4c3.2,3.2,3.1,7.1,3.1,12.5C266.3,55.3,266.4,59.2,263.2,62.3z M258.7,41
		c-0.9-1-2.2-1.7-3.9-1.7c-1.7,0-3.1,0.7-4,1.7c-1.2,1.3-1.5,2.8-1.5,8.8c0,6,0.3,7.5,1.5,8.8c0.9,1,2.3,1.7,4,1.7
		c1.7,0,3-0.7,3.9-1.7c1.2-1.3,1.5-2.8,1.5-8.8C260.2,43.8,259.8,42.4,258.7,41z"/>
	<path class="st1" d="M272.6,65.5V34.2h6.1v25.9h14.2v5.5H272.6z"/>
	<path class="st1" d="M297.9,65.5V34.2h6.1v25.9h14.2v5.5H297.9z"/>
	<path class="st1" d="M341,62.3c-2.2,2.2-4.9,3.4-8.4,3.4s-6.3-1.2-8.5-3.4c-3.2-3.2-3.1-7.1-3.1-12.5c0-5.4-0.1-9.3,3.1-12.5
		c2.2-2.2,4.9-3.4,8.5-3.4s6.2,1.2,8.4,3.4c3.2,3.2,3.1,7.1,3.1,12.5C344.1,55.3,344.2,59.2,341,62.3z M336.5,41
		c-0.9-1-2.2-1.7-3.9-1.7c-1.7,0-3.1,0.7-4,1.7c-1.2,1.3-1.5,2.8-1.5,8.8c0,6,0.3,7.5,1.5,8.8c0.9,1,2.3,1.7,4,1.7
		c1.7,0,3-0.7,3.9-1.7c1.2-1.3,1.5-2.8,1.5-8.8C338,43.8,337.6,42.4,336.5,41z"/>
	<path class="st1" d="M360.8,65.8c-3.3,0-6.2-1.1-8.4-3.4c-1.4-1.4-2.2-2.9-2.6-4.7c-0.4-1.8-0.5-4.4-0.5-7.8s0.2-6,0.5-7.8
		c0.4-1.8,1.2-3.3,2.6-4.7c2.3-2.3,5.1-3.4,8.4-3.4c6,0,10.5,3.5,11.5,9.9h-6.2c-0.7-2.7-2.3-4.4-5.3-4.4c-1.7,0-3,0.5-3.9,1.6
		c-1.3,1.4-1.5,2.8-1.5,8.8c0,6.1,0.3,7.5,1.5,8.8c0.9,1.1,2.2,1.6,3.9,1.6c2.9,0,4.6-1.8,5.3-4.4h6.2
		C371.3,62.3,366.8,65.8,360.8,65.8z"/>
	<path class="st1" d="M395.9,65.5l-8.1-14.3l-4,4.8v9.4h-6.1V34.2h6.1v13.6l11-13.6h7.4l-10.4,12.5L403,65.5H395.9z"/>
</g>
</svg>
