<?xml version="1.0" encoding="utf-8"?>
<!-- Generator: Adobe Illustrator 19.1.0, SVG Export Plug-In . SVG Version: 6.00 Build 0)  -->
<svg version="1.1" id="Layer_1" xmlns="http://www.w3.org/2000/svg" xmlns:xlink="http://www.w3.org/1999/xlink" x="0px" y="0px"
	 viewBox="0 0 166 134.1" style="enable-background:new 0 0 166 134.1;" xml:space="preserve">
<style type="text/css">
	.st0{fill:#464343;}
	.st1{fill-rule:evenodd;clip-rule:evenodd;fill:#E86D9E;}
	.st2{fill-rule:evenodd;clip-rule:evenodd;fill:#6FCBDC;}
	.st3{fill:#6FCBDD;}
	.st4{fill-rule:evenodd;clip-rule:evenodd;fill:#464343;}
	.st5{fill-rule:evenodd;clip-rule:evenodd;fill:#E8B7B8;}
	.st6{fill:#B49B86;}
</style>
<g>
	<g>
		<path class="st0" d="M129.2,3.1c2.2,11.1,4.2,22.4,7.1,33.4c0.8,3.1,5.6,1.8,4.8-1.3c-2.9-11-4.9-22.2-7.1-33.4
			C133.4-1.4,128.6,0,129.2,3.1L129.2,3.1z"/>
	</g>
</g>
<g>
	<g>
		<path class="st0" d="M30.3,81.9c11.2,5.6,22.4,11.8,34.2,16.2c3,1.1,4.3-3.7,1.3-4.8c-11.4-4.2-22.2-10.3-33-15.7
			C29.9,76.1,27.4,80.5,30.3,81.9L30.3,81.9z"/>
	</g>
</g>
<g>
	<g>
		<path class="st0" d="M115.8,124.8c4.4,3,8.6,6.2,13.2,8.9c2.8,1.7,5.3-2.7,2.5-4.3c-4.5-2.7-8.8-5.9-13.2-8.9
			C115.7,118.6,113.2,123,115.8,124.8L115.8,124.8z"/>
	</g>
</g>
<g>
	<g>
		<path class="st0" d="M154.7,89.5c2.1,5.1,4.3,10.2,6.7,15.1c1.4,2.9,5.7,0.4,4.3-2.5c-2.2-4.6-4.2-9.2-6.2-13.9
			C158.3,85.3,153.5,86.6,154.7,89.5L154.7,89.5z"/>
	</g>
</g>
<path class="st1" d="M74.1,27.6c23.8-17.6,57.2-13.9,73.4,8.2c18.1,24.6,14,59.5-9.3,76.4c-27.7,20-55.7,17.4-74.1-7.1
	C43.7,77.8,50.8,45,74.1,27.6z"/>
<g>
	<path class="st2" d="M3.3,65.5c-0.2,1-2.6,7-2,8.1c1.2,2,3.8,1.4,4.4-0.1c0.8-2.1-0.9-7.1-2.4-8.9"/>
	<g>
		<path class="st3" d="M2.1,65.1c-0.6,3-4.8,10.2,0.9,11c2.5,0.3,4.2-1.7,4.2-4c0-2.8-1.2-5.9-2.8-8.2c-0.9-1.3-3.1,0-2.2,1.3
			c1.1,1.5,1.8,3.3,2.2,5C4.6,71,4.9,72,4.6,72.8c-0.3,0.8-1.7,1.3-2.2,0.3C2,72.3,3.1,70,3.4,69.2c0.4-1.1,0.9-2.3,1.1-3.4
			C4.8,64.2,2.4,63.6,2.1,65.1L2.1,65.1z"/>
	</g>
</g>
<g>
	<path class="st2" d="M8,87.6c-0.1,0.4,0.2,1.5,0.5,2c0.5,0.8,1.6,0.6,1.8-0.1c0.1-0.3,0.7-1.1,0.5-2c-0.2-1.5-1.2-3.3-1.3-4
		C9.6,83.5,8.1,87,8,87.6z"/>
	<g>
		<path class="st3" d="M6.8,87.6c-0.1,1,0.3,2.5,1.1,3.2c0.9,0.8,2.4,0.7,3.2-0.2c2.1-2.3,0.3-4.9-0.3-7.4c-0.3-1.3-2-1-2.4,0
			c-0.5,1.3-1.2,2.7-1.6,4c-0.3,1.6,2.1,2.2,2.4,0.7c0.3-1.4,1-2.7,1.6-4c-0.8,0-1.6,0-2.4,0c0.3,1.3,1.2,2.5,1.2,3.8
			c0,0.3-0.2,0.6-0.2,0.9c0,0.1-0.1,0.2-0.1,0.3c0.1,0,0.2,0,0.2,0c0.1,0.1,0.1,0,0-0.1c0-0.1-0.1-0.3-0.1-0.4
			c-0.1-0.3-0.1-0.5-0.1-0.8C9.4,86,6.9,86,6.8,87.6z"/>
	</g>
</g>
<path class="st4" d="M101.6,59.5c4.2,5.6,3.9,10.8-0.2,14C97.2,76.6,91,74.9,87,69.5c-2.9-3.8-1-8.9,5.5-13.4
	C97.5,52.5,99.4,57.4,101.6,59.5z M98.5,61.6c-1.4-1.3-3-4.6-5.5-1.4c-1.6,2.1-6.6,3.6-3.2,7.7c2.3,2.7,5.6,5.1,9,2.6
	C102,68.2,101.1,64.8,98.5,61.6z"/>
<path class="st4" d="M109.6,46.3c-1.9,1.5-3.7,1.1-4.8-0.3c-1.4-1.7-1-3.6,0.8-4.9c1.5-1.1,3.2-1.4,4.4,0.4
	C111.3,43.3,111,45.1,109.6,46.3z"/>
<path class="st4" d="M73.6,75.8c0.8,1.9,1.2,3.7-0.9,5c-1.5,0.9-3,0.5-3.9-0.9c-1.2-1.8-0.9-3.7,0.9-4.9
	C71.2,74,72.6,74.3,73.6,75.8z"/>
<path class="st5" d="M98.5,61.6c2.6,3.2,3.5,6.6,0.4,8.9c-3.4,2.5-6.7,0.1-9-2.6c-3.4-4.1,1.5-5.6,3.2-7.7
	C95.5,57,97.1,60.3,98.5,61.6z"/>
<g>
	<g>
		<path class="st6" d="M33.7,78.1c-3.7-8.2-8.3-16.4-14.8-22.7c-2.4-2.3-5.5,1.1-3.5,3.5c2.6,3.3,4.6,7.4,6.9,10.9
			c2.5,3.7,5,7.4,7.1,11.2c1.6,2.8,5.9,0.3,4.3-2.5c-2.4-4.3-5.2-8.3-7.9-12.4c-2.3-3.5-4.3-7.4-6.9-10.7c-1.2,1.2-2.4,2.4-3.5,3.5
			c6.2,6,10.5,13.9,14,21.7C30.7,83.5,35,81,33.7,78.1L33.7,78.1z"/>
	</g>
</g>
<g>
	<g>
		<path class="st0" d="M17,54.7c-0.5,0.1-0.7,0.1-0.5,0.2c0.4,0.3,0.5,0.4,0.3,0.2c-0.1-0.4-0.1-0.7-0.1-1.1c0-1,0.5-1.7,0.8-2.6
			c0.8-2.5-0.6-4.3-2.4-5.9c-2.4-2.1-5.7,1.1-3.5,3.5c1.5,1.7,3.4,3.2,4.6,5.1c0.2,0.3,0.5,1.3,0.8,1.5c2.1,1.7-0.3,0.2,0.1,0.3
			c-0.1-0.1,1.7-0.6,0.4-1c-3.1-0.9-4.4,3.9-1.3,4.8c3.6,1,6.5-1.4,5.7-5.2c-0.8-3.8-4.3-6.5-6.8-9.2c-1.2,1.2-2.4,2.4-3.5,3.5
			c0.2,0.1,1.5,1.5,1.2,0.9c-0.2-0.4,0.1-0.2-0.1,0c-0.1,0.1-0.2,0.5-0.3,0.7c-0.6,1.5-0.9,3-0.7,4.6c0.4,3.4,3.2,5.3,6.6,4.3
			C21.4,58.6,20,53.8,17,54.7L17,54.7z"/>
	</g>
</g>
<g>
	<g>
		<path class="st3" d="M10.1,46.6c1.3,0.7,2.4,1.7,3.3,2.8c0.7-0.5,1.3-1,2-1.5c-1-1.2-2.3-2.1-3.4-3.2c-0.4,0.7-0.8,1.4-1.2,2.1
			c1.9,0.3,3.4,1.4,4.8,2.5c1.1,0.9,2.6-1,1.5-2c-1.7-1.5-3.6-2.5-5.7-3.3c-0.1,0.8-0.2,1.6-0.3,2.5c0.7,0,1.9,0.5,2.7,1
			c0.5,0.2,0.9,0.5,1.3,0.9c0.1,0.1,0.3,0.3,0.3,0.4c-0.1,0.1,0.3-0.6-0.1-0.4c-1.3,1,0.5,2.8,1.8,1.8c3.4-2.7-3.9-6.2-6-6.1
			c-1.5,0-1.6,2-0.3,2.5c1.7,0.7,3.3,1.5,4.6,2.7c0.5-0.7,1-1.3,1.5-2c-1.6-1.2-3.3-2.5-5.4-2.8c-1.2-0.2-2.2,1.1-1.2,2.1
			c1.1,1.1,2.3,2.1,3.4,3.2c0.9,1.1,2.8-0.4,2-1.5c-1.2-1.5-2.5-2.8-4.2-3.7C10,43.7,8.7,45.9,10.1,46.6L10.1,46.6z"/>
	</g>
</g>
<g>
	<g>
		<path class="st3" d="M10.5,47.1c0.2,1.7,0.7,3.5,2.6,4c1.4,0.4,2.7-0.3,4.1-0.3c-0.3-0.1-0.6-0.2-0.9-0.4c1,1.1,1.4,2.2,2.6,3.1
			c0.9,0.7,2.1-0.4,1.8-1.4c-0.4-1.3-1.8-2.2-3-1.3c-0.3,0.3-0.4,0.8-0.3,1.2c0.2,0.7,0.9,1.1,1.5,1.5c0.9,0.5,2.2-0.4,1.8-1.4
			c-1.5-4-4.8-5.3-8.3-7.1c-1.4-0.7-2.7,1.4-1.3,2.2c2.8,1.4,6,2.5,7.2,5.6c0.6-0.5,1.2-0.9,1.8-1.4c-0.5-0.4-0.6-0.4-0.3,0
			c-0.1,0.4-0.2,0.8-0.3,1.2c0,0,0,0,0.1,0c-0.3,0.1-0.6,0.2-0.9,0.4c-0.1,0-0.2-0.1-0.4-0.1c0.6-0.5,1.2-0.9,1.8-1.4
			c-1-0.7-1.2-1.9-2.1-2.7c-0.6-0.5-1.3-0.4-2.1-0.2c-1.7,0.3-2.7,0.8-3-1.3C12.8,45.5,10.3,45.5,10.5,47.1L10.5,47.1z"/>
	</g>
</g>
</svg>
