<?xml version="1.0" encoding="utf-8"?>
<!-- Generator: Adobe Illustrator 19.1.0, SVG Export Plug-In . SVG Version: 6.00 Build 0)  -->
<svg version="1.1" id="Layer_1" xmlns="http://www.w3.org/2000/svg" xmlns:xlink="http://www.w3.org/1999/xlink" x="0px" y="0px"
	 viewBox="0 0 165.2 129.6" style="enable-background:new 0 0 165.2 129.6;" xml:space="preserve">
<style type="text/css">
	.st0{fill:#464343;}
	.st1{fill-rule:evenodd;clip-rule:evenodd;fill:#6FCBDD;}
	.st2{fill-rule:evenodd;clip-rule:evenodd;fill:#464343;}
	.st3{fill:#727273;}
	.st4{fill:#E86D9E;}
</style>
<g>
	<g>
		<path class="st0" d="M32.8,0.8c-8.2,9.5-13.1,21.3-8.5,33.7c1.1,3,5.9,1.7,4.8-1.3c-3.9-10.7,0.1-20.6,7.3-28.8
			C38.4,1.9,34.9-1.6,32.8,0.8L32.8,0.8z"/>
	</g>
</g>
<g>
	<g>
		<path class="st0" d="M130.2,78.6c-2.4,4.4-4.9,9.1-9.1,12.2c-4.6,3.4-10.3,4.1-15.8,4.2c-3.2,0.1-3.2,5.1,0,5
			c6.4-0.2,13-1.1,18.3-4.9c4.9-3.5,8.1-8.7,10.8-14C136,78.3,131.7,75.8,130.2,78.6L130.2,78.6z"/>
	</g>
</g>
<g>
	<g>
		<path class="st0" d="M2.4,82.2c4.4,0.1,8.7,0,13-0.8c3.2-0.6,1.8-5.4-1.3-4.8c-3.9,0.7-7.8,0.7-11.7,0.6
			C-0.8,77.2-0.8,82.2,2.4,82.2L2.4,82.2z"/>
	</g>
</g>
<g>
	<g>
		<path class="st0" d="M58.8,128.5c2.2-3.1,5.1-5.7,7-9.1c1.5-2.8-2.8-5.4-4.3-2.5c-1.8,3.4-4.8,6-7,9.1
			C52.6,128.6,56.9,131.1,58.8,128.5L58.8,128.5z"/>
	</g>
</g>
<path class="st1" d="M98.9,20.8c27.4,21.6,27.6,54.3,8.5,78.7c-16.2,20.8-49.6,25.5-75.8,3.6c-21-17.5-28.1-52.7-6.1-78.3
	C43.6,3.8,75.1,1.6,98.9,20.8z"/>
<path class="st2" d="M107.6,68.1c-2-2.2-2.8,0.7-3.8,1.6c-1.8,1.6-5.5,3.7-7.6,2.3c-1.2-0.8-2.4-2.4-1.3-4.8c0.2-0.7,0.6-1.4,1-2.1
	c0.5-1.1,1.2-2.2,1.9-3.2c0.8-1.3,0.8-1.5-0.7-2c-1.6-0.4-1-0.3-1.3-0.1c-2.8,1.6-7,10.8-1.9,14.9c5,4,9.3-0.4,12-2.6
	C107.1,71.2,109.3,69.9,107.6,68.1z"/>
<path class="st2" d="M52.6,45.8c-5.2-4.2-3.1-11-0.2-14.2c0.7-0.7,1.4-1.5,2.4-1c1.2,0.6,0.5,1.6,0.3,2.5c-0.1,0.5-0.5,1-0.7,1.6
	c-1,2.6-1.8,6.5,0.4,8.2c2.4,1.9,5.6-1.3,7.2-3c1-1,2.1-2.3,3.4-1.1c1.5,1.5,0,2.8-1,3.9C61.3,46.1,58,50.2,52.6,45.8z"/>
<g>
	<g>
		<path class="st0" d="M73.3,57.1c-1.3,2.3-1.9,5.5,0.4,7.4c2.3,1.9,5.3,0.4,6.9-1.7c0.5-0.6,0.6-1.5,0-2.1c-0.5-0.5-1.6-0.6-2.1,0
			c-0.5,0.6-1,1.3-1.8,1.6c-0.4,0.1-0.8,0.1-1,0c-1.1-0.8-0.3-2.7,0.2-3.7C76.9,57,74.3,55.5,73.3,57.1L73.3,57.1z"/>
	</g>
</g>
<g>
	<g>
		<path class="st3" d="M134,88.5c-0.9-4.8,0.3-8.9,6-9.2c4-0.2,9,2,10.7,5.8c1.3,2.9,5.6,0.4,4.3-2.5c-2.6-6-11.2-9.3-17.3-8
			c-7.9,1.7-9.9,8.1-8.5,15.3C129.8,93,134.6,91.7,134,88.5L134,88.5z"/>
	</g>
</g>
<g>
	<path class="st3" d="M154.8,85.8c2.5,4.2,4.1,9.3,5.6,13.3l2.3,5.4c-4.1,4-7.7,4.4-12.8,5.8c-2.7,0.7-11.5,1.9-11.5,1.9
		s-5.8-16.7-7-20l1-0.2c4,2,9.8,0.2,13.8-1c1.5-0.5,12.4-5,7.4-6"/>
	<g>
		<path class="st3" d="M152.6,87.1c3.2,5.9,5.2,12.5,7.9,18.7c0.1-1,0.3-2,0.4-3c-5.8,5.3-15.1,5.9-22.6,6.9
			c0.8,0.6,1.6,1.2,2.4,1.8c-2.3-6.7-4.5-13.4-7-20c-0.6,1-1.2,2.1-1.7,3.1c1-0.3,3,0.7,4.3,0.7c2.2,0.1,4.4-0.3,6.5-0.8
			c3-0.7,5.9-1.8,8.7-3.2c3.3-1.6,9.5-6.9,2.7-8.8c-3.1-0.9-4.4,3.9-1.3,4.8c0.3-2.1,0-2.8-0.8-2.1c-0.3,0.3-0.7,0.5-1.1,0.7
			c-0.7,0.2-1.8,0.9-2.4,1.3c-1.2,0.6-2.4,1.1-3.7,1.5c-2.7,0.9-5.7,1.8-8.5,1.6c-2.1-0.1-3.5-1.1-5.6-0.6c-1.2,0.3-2.2,1.8-1.7,3.1
			c2.5,6.6,4.7,13.3,7,20c0.3,0.9,1.3,2,2.4,1.8c9-1.2,19.1-2,26.1-8.4c0.9-0.8,0.8-2,0.4-3c-2.7-6.2-4.7-12.8-7.9-18.7
			C155.4,81.7,151.1,84.3,152.6,87.1L152.6,87.1z"/>
	</g>
</g>
<g>
	<g>
		<path class="st4" d="M135,92c3.4,0,6.3-1,9.6-1.8c2.9-0.7,5.7-1.4,8.4-2.7c2-1,0.2-4-1.8-3c-2.4,1.2-5,1.7-7.6,2.4
			c-2.9,0.7-5.6,1.7-8.6,1.7C132.8,88.5,132.8,92,135,92L135,92z"/>
	</g>
</g>
<g>
	<g>
		<path class="st4" d="M148.6,89.5c0.4,2.9-1.8,9.9,2.6,10.8c2.3,0.5,4.9-1.3,4.4-3.8c-0.3-1.3-1.1-2.3-1.9-3.4
			c-1.3-1.8-1.9-3.8-2.8-5.8c-0.6-1.5-2.8-0.2-2.2,1.3c1,2.4,1.9,4.5,3.4,6.6c0.5,0.8,1.7,2.2,0.1,2.6c-0.7,0.1-0.8,0-1.1-0.6
			c-1.2-2.4,0.1-5.8-0.2-8.4C150.8,87.3,148.4,88,148.6,89.5L148.6,89.5z"/>
	</g>
</g>
<g>
	<g>
		<path class="st4" d="M149.6,94.2c-0.6,1.7,0.6,5.3,2.9,4.6c2.5-0.8,0.6-4.5-0.3-5.9c-0.6-1.1-2.3-0.6-2.3,0.6
			c-0.1,1.6,0.6,3.1,1.5,4.4c0.6,0.8,2.1,0.9,2.3-0.3c0.3-1.8-0.7-3.2-1.4-4.7c-0.3-0.6-1.2-0.8-1.7-0.4c-0.6,0.4-0.7,1.1-0.4,1.7
			c0.3,0.7,1.3,1.9,1.1,2.8c0.8-0.1,1.5-0.2,2.3-0.3c-0.7-0.9-1.3-1.9-1.2-3.1c-0.8,0.2-1.6,0.4-2.3,0.6c0.3,0.5,0.5,1,0.7,1.5
			c0.1,0.3,0.2,0.6,0.3,0.9c0,0.1,0.1,0.4,0.1,0.5c0-0.1,0-0.1,0,0c0,0.1,0,0.1,0,0c0.3-0.1,0.3-0.6,0.8-0.5
			c0.1,0.1,0.2,0.1,0.3,0.2c-0.1-0.1-0.1-0.1,0,0c0-0.2-0.2-0.4-0.2-0.6c-0.1-0.3-0.1-0.4-0.1-0.6c0-0.1,0-0.2,0-0.4
			c0-0.1-0.1,0.2,0-0.1C152.6,93.4,150.1,92.7,149.6,94.2L149.6,94.2z"/>
	</g>
</g>
<g>
	<g>
		<path class="st4" d="M132.8,92.3c4.6,0.4,9.2-0.6,13.6-1.8c3-0.9,6.6-1.9,8.3-4.7c0.5-0.8,0.2-1.9-0.6-2.4
			c-3.9-2.2-8.5,0.6-12.3,1.7c-3.5,1-8.4,1-10.7,4.3c-0.5,0.7-0.2,2,0.6,2.4c1.3,0.6,1.7,0.7,3.1,0.3c2.2-0.6,1.2-4-0.9-3.4
			c-0.1,0-0.3,0-0.4,0.1c0.2,0.8,0.4,1.6,0.6,2.4c1.4-2,6.4-2.1,8.6-2.7c2.5-0.7,7.1-3.5,9.7-2.1c-0.2-0.8-0.4-1.6-0.6-2.4
			c-1.4,2.2-5.4,2.8-7.7,3.5c-3.6,1-7.4,1.7-11.1,1.3C130.6,88.6,130.6,92.1,132.8,92.3L132.8,92.3z"/>
	</g>
</g>
</svg>
