<?xml version="1.0" encoding="iso-8859-1"?>
<!-- Generator: Adobe Illustrator 19.1.0, SVG Export Plug-In . SVG Version: 6.00 Build 0)  -->
<!DOCTYPE svg PUBLIC "-//W3C//DTD SVG 1.1//EN" "http://www.w3.org/Graphics/SVG/1.1/DTD/svg11.dtd">
<svg version="1.1" id="Layer_1" xmlns="http://www.w3.org/2000/svg" xmlns:xlink="http://www.w3.org/1999/xlink" x="0px" y="0px"
	 viewBox="0 0 518.418 239.748" style="enable-background:new 0 0 518.418 239.748;" xml:space="preserve">
<g>
	<g>
		<g>
			<polygon style="fill:#250E0B;" points="46,126 102.5,47.5 138.75,119.75 			"/>
		</g>
		<g>
			<polygon style="fill:#66130C;" points="140.375,142.25 46,126 138.75,119.75 			"/>
		</g>
		<polyline style="fill:#33120E;" points="187.416,170.75 140.375,142.25 138.75,119.75 		"/>
		<g>
			<polygon style="fill:#8D181B;" points="187.416,170.75 125.918,236.416 140.375,142.25 			"/>
		</g>
		<g>
			<polygon style="fill:#700F12;" points="210,206.75 125.918,236.416 187.416,170.75 			"/>
		</g>
		<g>
			<polygon style="fill:#3C160B;" points="210,206.75 187.416,170.75 254.418,173.416 			"/>
		</g>
		<g>
			<polygon style="fill:#871719;" points="257.084,239.748 210,206.75 254.418,173.416 			"/>
		</g>
		<g>
			<polygon style="fill:#49140F;" points="347.752,239.748 257.084,239.748 254.418,173.416 			"/>
		</g>
		<g>
			<polygon style="fill:#250D0B;" points="347.752,239.748 254.418,173.416 302.418,146.916 			"/>
		</g>
		<g>
			<polygon style="fill:#7F1917;" points="347.752,239.748 302.418,146.916 341.418,119.75 			"/>
		</g>
		<g>
			<polygon style="fill:#9E1C20;" points="455.418,91.078 412.418,78.01 518.418,78.01 			"/>
		</g>
		<g>
			<polygon style="fill:#991E1F;" points="17.832,124.506 46,126 25.451,99.754 			"/>
		</g>
		<g>
			<polygon style="fill:#25130A;" points="302.418,146.916 306.086,78.01 341.418,119.75 			"/>
		</g>
		<g>
			<polygon style="fill:#250D0B;" points="45.988,126 17.832,124.506 38.346,149.812 			"/>
		</g>
		<g>
			<polygon style="fill:#53120C;" points="260.752,115.416 306.086,78.01 302.418,146.916 			"/>
		</g>
		<g>
			<polygon style="fill:#831618;" points="254.418,173.416 260.752,115.416 302.418,146.916 			"/>
		</g>
		<g>
			<polygon style="fill:#5D140B;" points="187.416,170.75 260.752,115.416 254.418,173.416 			"/>
		</g>
		<g>
			<polygon style="fill:#991E1F;" points="138.75,119.75 260.752,115.416 187.416,170.75 			"/>
		</g>
		<g>
			<polygon style="fill:#991E1F;" points="102.5,47.5 156.668,55.75 138.75,119.75 			"/>
		</g>
		<g>
			<polygon style="fill:#30170D;" points="156.668,55.75 153.742,106.717 138.75,119.75 			"/>
		</g>
		<g>
			<polygon style="fill:#4A170D;" points="234.771,36.27 260.752,115.416 138.75,119.75 			"/>
		</g>
		<g>
			<polygon style="fill:#741112;" points="234.771,36.27 263.252,34.416 260.752,115.416 			"/>
		</g>
		<g>
			<polygon style="fill:#9E1C20;" points="263.252,34.416 306.086,78.01 260.752,115.416 			"/>
		</g>
		<g>
			<polygon style="fill:#6B0D0E;" points="263.252,34.416 301.086,3.75 306.086,78.01 			"/>
		</g>
		<g>
			<polygon style="fill:#280F0D;" points="301.086,3.75 353.418,11.75 306.086,78.01 			"/>
		</g>
		<g>
			<polygon style="fill:#53120C;" points="353.418,11.75 366.869,53.074 306.086,78.01 			"/>
		</g>
		<g>
			<polygon style="fill:#961B1E;" points="366.869,53.074 341.418,119.75 306.086,78.01 			"/>
		</g>
		<g>
			<polygon style="fill:#AC1E23;" points="366.869,53.074 405.918,129.082 341.418,119.75 			"/>
		</g>
		<g>
			<polygon style="fill:#54130B;" points="412.418,78.01 405.918,129.082 366.869,53.074 			"/>
		</g>
		<g>
			<polygon style="fill:#280F0D;" points="455.418,91.078 405.918,129.082 412.418,78.01 			"/>
		</g>
		<g>
			<polygon style="fill:#3B140E;" points="341.418,119.75 405.918,129.082 347.752,239.748 			"/>
		</g>
		<g>
			<polygon style="fill:#210D0C;" points="405.918,129.082 452.084,157.748 347.752,239.748 			"/>
		</g>
		<g>
			<polygon style="fill:#6B160F;" points="455.418,91.078 452.084,157.748 405.918,129.082 			"/>
		</g>
		<g>
			<polygon style="fill:#B01F24;" points="455.418,91.078 518.418,78.01 452.084,157.748 			"/>
		</g>
		<g>
			<polygon style="fill:#210D0B;" points="234.771,36.27 153.742,106.717 156.668,55.75 			"/>
		</g>
		<g>
			<polygon style="fill:#A22021;" points="234.771,36.27 156.668,55.75 185.625,0 			"/>
		</g>
		<g>
			<polygon style="fill:#33120E;" points="118.879,151.543 133.146,189.334 140.375,142.25 			"/>
		</g>
		<polyline style="fill:#73191B;" points="87.75,165 24,194.5 45.994,125.984 87.75,165 		"/>
		<g>
			<polygon style="fill:#421211;" points="87.75,165 46,126 140.375,142.25 			"/>
		</g>
		<g>
			<polygon style="fill:#73191B;" points="102.5,47.5 46,126 0,67.25 			"/>
		</g>
	</g>
	<g>
		<path style="fill:#FFFFFF;" d="M53.621,105.233c-6.766,0-10.148,2.438-10.148,7.31c0,2.236,0.744,3.813,2.236,4.73
			c1.49,0.917,4.858,1.821,10.104,2.709c5.246,0.89,8.944,2.107,11.095,3.655c2.149,1.548,3.225,4.515,3.225,8.9
			c0,4.387-1.406,7.598-4.215,9.633c-2.809,2.035-6.938,3.053-12.383,3.053c-3.154,0-7.225-0.402-12.213-1.204l-2.494-0.344
			l0.344-4.559c6.421,0.976,11.353,1.462,14.793,1.462c3.439,0,6.119-0.602,8.041-1.806c1.92-1.204,2.881-3.238,2.881-6.105
			c0-2.866-0.789-4.774-2.365-5.72c-1.578-0.945-4.959-1.819-10.148-2.623c-5.189-0.802-8.844-1.948-10.965-3.44
			c-2.121-1.49-3.182-4.3-3.182-8.428c0-4.128,1.462-7.138,4.387-9.03c2.924-1.892,6.535-2.838,10.836-2.838
			c3.439,0,7.739,0.374,12.899,1.118l2.321,0.344l-0.172,4.558C62.363,105.692,57.404,105.233,53.621,105.233z"/>
		<path style="fill:#FFFFFF;" d="M101.375,105.921H87.014v21.241c0,5.562,0.4,9.202,1.203,10.923
			c0.803,1.72,2.695,2.579,5.677,2.579l7.912-0.602l0.344,4.386c-3.784,0.572-6.68,0.86-8.687,0.86
			c-4.357,0-7.382-1.075-9.072-3.225c-1.691-2.15-2.537-6.264-2.537-12.342v-23.821h-6.364v-4.558h6.364V87.861h5.16v13.502h14.361
			V105.921z"/>
		<path style="fill:#FFFFFF;" d="M139.215,114.177v23.048c0.227,2.122,2.092,3.384,5.59,3.784l-0.258,4.128
			c-4.416,0-7.654-1.146-9.719-3.44c-5.39,2.352-10.779,3.526-16.168,3.526c-3.842,0-6.766-1.104-8.771-3.311
			c-2.008-2.206-3.01-5.359-3.01-9.46c0-4.098,1.017-7.138,3.053-9.115c2.034-1.979,5.23-3.196,9.588-3.655l14.621-1.462v-4.042
			c0-3.21-0.703-5.517-2.107-6.923c-1.406-1.404-3.283-2.107-5.633-2.107c-3.67,0-8.428,0.344-14.276,1.032l-2.666,0.258
			l-0.258-4.128c6.306-1.204,11.825-1.806,16.556-1.806c4.729,0,8.154,1.118,10.276,3.354
			C138.152,106.093,139.215,109.533,139.215,114.177z M112.21,132.15c0,5.792,2.378,8.686,7.138,8.686
			c2.064,0,4.328-0.243,6.795-0.732c2.464-0.486,4.414-0.989,5.848-1.505l2.15-0.775v-15.565l-14.018,1.462
			c-2.81,0.229-4.831,1.032-6.063,2.408C112.826,127.507,112.21,129.514,112.21,132.15z"/>
		<path style="fill:#FFFFFF;" d="M151.623,144.362v-43h5.074v6.192c2.121-1.49,4.715-2.924,7.783-4.3
			c3.066-1.376,5.891-2.292,8.471-2.752v5.16c-2.466,0.516-5.045,1.305-7.74,2.365c-2.695,1.062-4.787,1.993-6.277,2.795
			l-2.236,1.29v32.25H151.623z"/>
		<path style="fill:#FFFFFF;" d="M203.79,105.921h-14.362v21.241c0,5.562,0.4,9.202,1.204,10.923
			c0.802,1.72,2.694,2.579,5.677,2.579l7.912-0.602l0.344,4.386c-3.784,0.572-6.68,0.86-8.687,0.86
			c-4.358,0-7.382-1.075-9.073-3.225c-1.691-2.15-2.537-6.264-2.537-12.342v-23.821h-6.363v-4.558h6.363V87.861h5.16v13.502h14.362
			V105.921z"/>
		<path style="fill:#FFFFFF;" d="M238.129,101.363h5.074v43h-5.074v-3.182c-4.416,2.695-8.83,4.042-13.244,4.042
			c-5.848,0-9.705-1.49-11.567-4.472c-1.864-2.981-2.795-8.629-2.795-16.942v-22.446h5.074v22.36c0,6.651,0.615,11.123,1.849,13.416
			c1.232,2.294,3.913,3.439,8.041,3.439c2.006,0,4.07-0.301,6.191-0.902c2.121-0.603,3.727-1.218,4.816-1.85l1.635-0.859V101.363z"
			/>
		<path style="fill:#FFFFFF;" d="M253.711,163.713v-62.35h5.074v3.268c4.473-2.752,9.188-4.128,14.147-4.128
			c4.959,0,8.657,1.75,11.095,5.246c2.436,3.498,3.655,9.188,3.655,17.07c0,7.884-1.434,13.588-4.301,17.114
			c-2.867,3.526-7.625,5.289-14.275,5.289c-3.556,0-6.996-0.374-10.32-1.118v19.608H253.711z M271.857,105.147
			c-1.892,0-3.928,0.316-6.105,0.946c-2.18,0.631-3.871,1.29-5.074,1.978l-1.893,0.946v30.616c3.898,0.688,7.28,1.031,10.148,1.031
			c4.93,0,8.398-1.389,10.406-4.171c2.006-2.78,3.01-7.366,3.01-13.76c0-6.392-0.875-10.921-2.623-13.587
			C277.977,106.48,275.353,105.147,271.857,105.147z"/>
		<path style="fill:#FFFFFF;" d="M330.594,105.233c-6.766,0-10.148,2.438-10.148,7.31c0,2.236,0.744,3.813,2.236,4.73
			c1.49,0.917,4.859,1.821,10.105,2.709c5.246,0.89,8.943,2.107,11.094,3.655c2.15,1.548,3.225,4.515,3.225,8.9
			c0,4.387-1.405,7.598-4.214,9.633c-2.81,2.035-6.938,3.053-12.384,3.053c-3.154,0-7.225-0.402-12.212-1.204l-2.494-0.344
			l0.344-4.559c6.421,0.976,11.353,1.462,14.792,1.462c3.44,0,6.119-0.602,8.041-1.806c1.92-1.204,2.881-3.238,2.881-6.105
			c0-2.866-0.789-4.774-2.365-5.72c-1.577-0.945-4.959-1.819-10.147-2.623c-5.19-0.802-8.845-1.948-10.965-3.44
			c-2.122-1.49-3.183-4.3-3.183-8.428c0-4.128,1.463-7.138,4.387-9.03c2.924-1.892,6.535-2.838,10.836-2.838
			c3.439,0,7.74,0.374,12.9,1.118l2.321,0.344l-0.172,4.558C339.336,105.692,334.378,105.233,330.594,105.233z"/>
		<path style="fill:#FFFFFF;" d="M360.15,144.362h-5.073V82.271h5.073v21.586c4.816-2.236,9.461-3.354,13.933-3.354
			c5.732,0,9.56,1.52,11.482,4.558c1.92,3.04,2.881,8.6,2.881,16.683v22.618h-5.16v-22.359c0-6.593-0.617-11.051-1.85-13.373
			c-1.233-2.322-3.912-3.483-8.041-3.483c-2.008,0-4.114,0.244-6.32,0.731c-2.208,0.488-3.913,0.989-5.117,1.505l-1.807,0.688
			V144.362z"/>
		<path style="fill:#FFFFFF;" d="M427.333,140.062l2.58-0.258l0.172,4.214c-6.479,0.802-11.954,1.204-16.426,1.204
			c-6.192-0.058-10.523-1.893-12.986-5.504c-2.466-3.612-3.698-9.173-3.698-16.685c0-15.02,5.904-22.531,17.717-22.531
			c5.676,0,9.918,1.621,12.728,4.859c2.809,3.24,4.214,8.414,4.214,15.523l-0.172,4.128h-29.24c0,5.275,0.903,9.188,2.709,11.739
			c1.807,2.552,4.902,3.826,9.288,3.826C418.603,140.578,422.975,140.406,427.333,140.062z M402.221,120.713h24.252
			c0-5.676-0.932-9.718-2.795-12.126c-1.863-2.408-4.846-3.612-8.943-3.612c-4.1,0-7.211,1.247-9.332,3.741
			C403.281,111.21,402.221,115.209,402.221,120.713z"/>
		<path style="fill:#FFFFFF;" d="M440.216,144.362V82.271h5.074v62.091H440.216z"/>
		<path style="fill:#FFFFFF;" d="M456.193,144.362V82.271h5.074v62.091H456.193z"/>
	</g>
</g>
</svg>
